<?xml version="1.0" encoding="UTF-8"?>
<svg viewBox="0 0 185.60851 113.62795" xmlns="http://www.w3.org/2000/svg">
 <defs>
  <linearGradient id="a" x1="32.018" x2="210.45" y1="169.58" y2="162.22" gradientUnits="userSpaceOnUse">
   <stop stop-color="#ffab00" offset="0"/>
   <stop stop-color="#ffcf00" offset="1"/>
  </linearGradient>
 </defs>
 <g transform="translate(-43.454 -88.216)">
  <path d="m62.363 88.216c-2.8921-0.01407-6.6497 2.8952-10.656 10-12.45 22.079-15.664 65.233 25.767 88.08 40.568 22.371 83.426 4.9745 100.5 1.1419l2.9688 14.406 48.125-42.781-61.125-20.281 3.3438 16.156c-18.421 6.6331-55.449 17.699-79.125 9.375-31.372-11.03-33.61-33.618-29.106-47.628 4.9119-15.28 5.6751-28.438-0.6875-28.469z" fill="#ff5f00"/>
  <path d="m61.136 94.784c-8.1709 5.8807-10.283 14.615-12.614 23.884-4.6477 22.738 4.8537 48.052 24.852 60.488 26.991 18.481 62.556 16.851 92.538 7.2927 4.87-0.93407 11.586-4.7984 15.524-0.73018 1.3951 2.7294 1.1844 6.1473 2.0312 8.875 12.083-11.625 23.231-22.549 35.719-33.906-16.052-5.3333-30.104-10.667-46.156-16 2.1129 4.8929 4.2115 13.667-3.3075 14.996-25.655 8.41-54.092 16.589-80.755 7.8169-17.063-5.8143-32.597-21.298-31.75-40.344 0.08563-11.802 7.371-20.756 4.3238-32.591l-0.40625 0.21875z" fill="url(#a)"/>
 </g>
</svg>
